STARTFONT 2.1
FONT -sun-conga-medium-r-normal--20-200-75-75-p-137-adobe-fontspecific
SIZE 20 75 75
FONTBOUNDINGBOX 29 23 -4 -4

STARTPROPERTIES 28
FOUNDRY "sun"
FAMILY_NAME "conga"
WEIGHT_NAME "medium"
SLANT "r"
SETWIDTH_NAME "normal"
ADD_STYLE_NAME ""
PIXEL_SIZE 21
POINT_SIZE 200
RESOLUTION_X 75
RESOLUTION_Y 75
SPACING "p"
AVERAGE_WIDTH 137
CHARSET_REGISTRY "adobe"
CHARSET_ENCODING "fontspecific"
COPYRIGHT "© 1999 Sun Microsystems, Inc."
RAW_PIXELSIZE 1000
RAW_POINTSIZE 964
RAW_ASCENT 927
RAW_DESCENT 211
RAW_AVERAGE_WIDTH 6603
FACE_NAME "CongaNormal"
_XMBDFED_INFO "Edited with xmbdfed 2.4."
WEIGHT 10
X_HEIGHT -2
QUAD_WIDTH 13
DEFAULT_CHAR 4
FONT_DESCENT 4
FONT_ASCENT 19
ENDPROPERTIES

CHARS 203

STARTCHAR char32
ENCODING 32
SWIDTH 43 0
DWIDTH 10 0
BBX 0 0 0 0
BITMAP
ENDCHAR

STARTCHAR char33
ENCODING 33
SWIDTH 21 0
DWIDTH 5 0
BBX 3 15 1 0
BITMAP
E0
40
40
40
40
40
40
40
40
40
40
00
00
40
40
ENDCHAR

STARTCHAR char34
ENCODING 34
SWIDTH 25 0
DWIDTH 6 0
BBX 4 4 1 11
BITMAP
90
90
90
90
ENDCHAR

STARTCHAR char35
ENCODING 35
SWIDTH 8 0
DWIDTH 12 0
BBX 10 15 1 0
BITMAP
1980
1100
1100
1100
FFC0
3300
3300
3300
2200
FF80
FF80
2200
6600
6600
6600
ENDCHAR

STARTCHAR char36
ENCODING 36
SWIDTH 29 0
DWIDTH 17 0
BBX 14 18 0 -2
BITMAP
0100
0100
1FE0
3118
6108
4100
4100
7100
1FC0
01F0
0118
0108
4108
4108
B930
0FE0
0100
0100
ENDCHAR

STARTCHAR char37
ENCODING 37
SWIDTH 20 0
DWIDTH 25 0
BBX 22 15 0 0
BITMAP
1E0080
630180
418100
808200
808400
808800
8099F0
41B308
332604
1C4404
008404
018404
030604
020308
0401F0
ENDCHAR

STARTCHAR char38
ENCODING 38
SWIDTH 33 0
DWIDTH 18 0
BBX 15 15 1 0
BITMAP
0F00
1180
20C0
2040
2040
1084
1F0C
219E
40D0
8070
8060
8060
C0F0
639A
1E0C
ENDCHAR

STARTCHAR char39
ENCODING 39
SWIDTH 12 0
DWIDTH 3 0
BBX 1 4 1 11
BITMAP
80
80
80
80
ENDCHAR

STARTCHAR char40
ENCODING 40
SWIDTH 30 0
DWIDTH 7 0
BBX 4 15 1 0
BITMAP
10
20
40
40
C0
80
80
80
80
80
C0
40
60
30
10
ENDCHAR

STARTCHAR char41
ENCODING 41
SWIDTH 30 0
DWIDTH 7 0
BBX 4 15 1 0
BITMAP
80
C0
60
20
20
10
10
10
10
10
30
20
60
C0
80
ENDCHAR

STARTCHAR char42
ENCODING 42
SWIDTH 3 0
DWIDTH 11 0
BBX 10 9 0 6
BITMAP
0C00
0C00
4880
7B80
9E40
1C00
3200
3300
1200
ENDCHAR

STARTCHAR char43
ENCODING 43
SWIDTH 20 0
DWIDTH 15 0
BBX 12 12 1 0
BITMAP
0400
0400
0400
0400
0400
FFF0
0400
0400
0400
0400
0400
0400
ENDCHAR

STARTCHAR char44
ENCODING 44
SWIDTH 17 0
DWIDTH 4 0
BBX 1 4 1 -2
BITMAP
80
80
80
80
ENDCHAR

STARTCHAR char45
ENCODING 45
SWIDTH 30 0
DWIDTH 7 0
BBX 5 1 1 6
BITMAP
F8
ENDCHAR

STARTCHAR char46
ENCODING 46
SWIDTH 17 0
DWIDTH 4 0
BBX 1 2 1 0
BITMAP
80
80
ENDCHAR

STARTCHAR char47
ENCODING 47
SWIDTH 25 0
DWIDTH 16 0
BBX 13 15 0 0
BITMAP
0008
0008
0010
0020
0040
0080
0180
0300
0200
0400
0800
1000
2000
4000
4000
ENDCHAR

STARTCHAR char48
ENCODING 48
SWIDTH 33 0
DWIDTH 18 0
BBX 14 15 1 0
BITMAP
0FC0
1860
7038
6018
C00C
8004
8004
8004
8004
8004
C00C
4008
6018
3870
0FC0
ENDCHAR

STARTCHAR char49
ENCODING 49
SWIDTH 33 0
DWIDTH 18 0
BBX 5 15 5 0
BITMAP
18
10
F0
F0
30
10
10
10
10
10
10
10
10
10
10
ENDCHAR

STARTCHAR char50
ENCODING 50
SWIDTH 33 0
DWIDTH 18 0
BBX 13 15 2 0
BITMAP
0F80
38E0
6070
C010
4010
0030
0060
00C0
0380
0E00
1800
2000
6000
4008
FFF8
ENDCHAR

STARTCHAR char51
ENCODING 51
SWIDTH 33 0
DWIDTH 18 0
BBX 13 15 1 0
BITMAP
07C0
1870
7030
6010
0010
0010
0460
07E0
0010
0008
0008
4008
6018
3030
0FC0
ENDCHAR

STARTCHAR char52
ENCODING 52
SWIDTH 33 0
DWIDTH 18 0
BBX 15 15 1 0
BITMAP
00F0
00E0
00E0
01A0
0320
0620
0C20
1820
1020
3020
6022
FFFC
0020
0020
0020
ENDCHAR

STARTCHAR char53
ENCODING 53
SWIDTH 33 0
DWIDTH 18 0
BBX 12 15 2 0
BITMAP
7FE0
4010
4000
4000
4000
4FC0
F060
2030
0010
0010
0010
4010
C030
30E0
1F80
ENDCHAR

STARTCHAR char54
ENCODING 54
SWIDTH 33 0
DWIDTH 18 0
BBX 13 15 2 0
BITMAP
07C0
18F8
3020
6020
4000
C000
8FC0
9060
A030
C010
C010
4010
6030
3860
0FC0
ENDCHAR

STARTCHAR char55
ENCODING 55
SWIDTH 33 0
DWIDTH 18 0
BBX 13 15 1 0
BITMAP
FFF8
8018
0030
0030
0060
0060
00C0
00C0
0180
0100
0300
0200
0600
0400
0C00
ENDCHAR

STARTCHAR char56
ENCODING 56
SWIDTH 33 0
DWIDTH 18 0
BBX 13 15 1 0
BITMAP
0FC0
3830
6010
4010
4010
2010
3830
1FE0
6010
4008
C008
C008
6018
3070
0FC0
ENDCHAR

STARTCHAR char57
ENCODING 57
SWIDTH 33 0
DWIDTH 18 0
BBX 13 15 1 0
BITMAP
0F80
38E0
2030
4010
4018
4018
4038
6068
38C8
1F88
0018
4010
4030
B0E0
1F80
ENDCHAR

STARTCHAR char58
ENCODING 58
SWIDTH 21 0
DWIDTH 5 0
BBX 1 9 2 0
BITMAP
80
80
00
00
00
00
00
80
80
ENDCHAR

STARTCHAR char59
ENCODING 59
SWIDTH 21 0
DWIDTH 5 0
BBX 1 11 2 -2
BITMAP
80
80
00
00
00
00
00
80
80
80
80
ENDCHAR

STARTCHAR char60
ENCODING 60
SWIDTH 16 0
DWIDTH 14 0
BBX 11 11 1 0
BITMAP
0020
00E0
0380
1E00
7000
C000
E000
3C00
0700
01C0
0060
ENDCHAR

STARTCHAR char61
ENCODING 61
SWIDTH 20 0
DWIDTH 15 0
BBX 13 4 0 4
BITMAP
FFF8
0000
0000
FFF8
ENDCHAR

STARTCHAR char62
ENCODING 62
SWIDTH 16 0
DWIDTH 14 0
BBX 11 11 1 0
BITMAP
8000
E000
3800
0E00
0380
00E0
01C0
0700
1C00
7000
C000
ENDCHAR

STARTCHAR char63
ENCODING 63
SWIDTH 3 0
DWIDTH 11 0
BBX 8 15 1 0
BITMAP
3C
72
C1
41
01
02
02
04
04
08
08
00
00
08
08
ENDCHAR

STARTCHAR char64
ENCODING 64
SWIDTH 11 0
DWIDTH 23 0
BBX 15 15 3 0
BITMAP
07E0
1838
200C
4394
4672
8C62
9822
9822
9066
9844
4CC8
4770
2004
1818
07E0
ENDCHAR

STARTCHAR char65
ENCODING 65
SWIDTH 33 0
DWIDTH 18 0
BBX 16 15 0 0
BITMAP
0380
0180
03C0
0240
0660
0460
0C30
0C30
1810
1818
3FF8
300C
600C
6006
E007
ENDCHAR

STARTCHAR char66
ENCODING 66
SWIDTH 33 0
DWIDTH 18 0
BBX 14 15 1 0
BITMAP
7FE0
4018
4008
4008
4008
4008
4018
7FF0
4018
4004
4004
4004
400C
4018
7FF0
ENDCHAR

STARTCHAR char67
ENCODING 67
SWIDTH 33 0
DWIDTH 18 0
BBX 16 15 1 0
BITMAP
07F0
1C3C
300E
6004
C000
8000
8000
8000
8000
8000
C000
6002
700E
1C1C
07E0
ENDCHAR

STARTCHAR char68
ENCODING 68
SWIDTH 38 0
DWIDTH 19 0
BBX 15 15 1 0
BITMAP
7FC0
4030
4018
400C
4006
4002
4002
4002
4002
4002
4006
4004
400C
4038
7FE0
ENDCHAR

STARTCHAR char69
ENCODING 69
SWIDTH 25 0
DWIDTH 16 0
BBX 14 15 1 0
BITMAP
7FF8
4008
4000
4000
4000
4000
4040
7FC0
4020
4000
4000
4000
4000
4004
7FF8
ENDCHAR

STARTCHAR char70
ENCODING 70
SWIDTH 25 0
DWIDTH 16 0
BBX 14 15 1 0
BITMAP
7FF8
4004
4000
4000
4000
4000
4020
7FC0
4020
4000
4000
4000
4000
4000
E000
ENDCHAR

STARTCHAR char71
ENCODING 71
SWIDTH 38 0
DWIDTH 19 0
BBX 15 15 1 0
BITMAP
07E0
1C30
300C
6004
C000
8000
8000
8080
80FC
808C
C004
4004
600E
3838
0FE0
ENDCHAR

STARTCHAR char72
ENCODING 72
SWIDTH 38 0
DWIDTH 19 0
BBX 15 15 1 0
BITMAP
E00C
4004
4004
4004
4004
4004
4004
7FFC
4004
4004
4004
4004
4004
4004
E00C
ENDCHAR

STARTCHAR char73
ENCODING 73
SWIDTH 25 0
DWIDTH 6 0
BBX 3 15 2 0
BITMAP
C0
80
80
80
80
80
80
80
80
80
80
80
80
80
E0
ENDCHAR

STARTCHAR char74
ENCODING 74
SWIDTH 16 0
DWIDTH 14 0
BBX 11 15 1 0
BITMAP
00C0
0040
0040
0040
0040
0040
0040
0040
0040
0040
0040
0040
80C0
E180
3F00
ENDCHAR

STARTCHAR char75
ENCODING 75
SWIDTH 29 0
DWIDTH 17 0
BBX 15 15 1 0
BITMAP
E01C
4038
4060
40C0
4180
4600
4F00
7B00
6180
40C0
4060
4060
4030
4018
E01E
ENDCHAR

STARTCHAR char76
ENCODING 76
SWIDTH 25 0
DWIDTH 16 0
BBX 14 15 1 0
BITMAP
E000
4000
4000
4000
4000
4000
4000
4000
4000
4000
4000
4000
4000
4004
7FF8
ENDCHAR

STARTCHAR char77
ENCODING 77
SWIDTH 3 0
DWIDTH 21 0
BBX 17 15 1 0
BITMAP
F00780
700700
700500
500D00
580900
481900
4C1100
443100
462100
426100
434100
414100
41C100
408100
F08300
ENDCHAR

STARTCHAR char78
ENCODING 78
SWIDTH 38 0
DWIDTH 19 0
BBX 15 15 1 0
BITMAP
F00E
7004
5804
5804
4C04
4604
4304
4184
40C4
4064
4064
4034
401C
400C
E00E
ENDCHAR

STARTCHAR char79
ENCODING 79
SWIDTH 3 0
DWIDTH 21 0
BBX 17 15 1 0
BITMAP
07F000
1C3C00
300E00
600300
C00100
800180
800080
800080
800080
800180
C00100
600300
700600
181C00
07F000
ENDCHAR

STARTCHAR char80
ENCODING 80
SWIDTH 29 0
DWIDTH 17 0
BBX 13 15 1 0
BITMAP
7FE0
4030
4018
4008
4008
4008
4018
7FF0
4000
4000
4000
4000
4000
4000
E000
ENDCHAR

STARTCHAR char81
ENCODING 81
SWIDTH 38 0
DWIDTH 19 0
BBX 15 17 1 -2
BITMAP
07C0
1C30
3018
600C
C004
8006
8002
8002
8002
8002
C004
400C
67D8
3870
0FF0
001C
0008
ENDCHAR

STARTCHAR char82
ENCODING 82
SWIDTH 29 0
DWIDTH 17 0
BBX 15 15 1 0
BITMAP
7FF0
4038
400C
4004
4004
4004
4018
7FF0
40C0
4060
4060
4030
4018
4018
E00E
ENDCHAR

STARTCHAR char83
ENCODING 83
SWIDTH 29 0
DWIDTH 17 0
BBX 14 15 0 0
BITMAP
0FE0
3C7C
7008
4008
4000
4000
3000
1FF0
0038
0004
0004
4004
600C
7838
0FE0
ENDCHAR

STARTCHAR char84
ENCODING 84
SWIDTH 29 0
DWIDTH 17 0
BBX 14 15 0 0
BITMAP
FFFC
81FC
0100
0100
0100
0100
0100
0100
0100
0100
0100
0100
0100
0100
0300
ENDCHAR

STARTCHAR char85
ENCODING 85
SWIDTH 33 0
DWIDTH 18 0
BBX 14 15 1 0
BITMAP
E00C
4008
4008
4008
4008
4008
4008
4008
4008
4008
4008
4008
6018
3038
1FE0
ENDCHAR

STARTCHAR char86
ENCODING 86
SWIDTH 29 0
DWIDTH 17 0
BBX 15 15 0 0
BITMAP
C00E
C00C
600C
6018
3018
3010
1030
1820
1860
0C40
0CC0
0480
0680
0380
0380
ENDCHAR

STARTCHAR char87
ENCODING 87
SWIDTH 20 0
DWIDTH 25 0
BBX 22 15 0 0
BITMAP
C0380C
C0300C
403808
606818
604818
204C10
30C430
308430
118620
198260
090240
0B0340
0E01C0
060180
0E01C0
ENDCHAR

STARTCHAR char88
ENCODING 88
SWIDTH 29 0
DWIDTH 17 0
BBX 14 15 0 0
BITMAP
701C
3018
1830
1860
0CC0
06C0
0380
0300
0780
04C0
0C60
1820
3030
2018
F00C
ENDCHAR

STARTCHAR char89
ENCODING 89
SWIDTH 25 0
DWIDTH 16 0
BBX 14 15 0 0
BITMAP
C01C
6018
2030
3020
1840
0CC0
0580
0700
0200
0200
0200
0200
0200
0200
0300
ENDCHAR

STARTCHAR char90
ENCODING 90
SWIDTH 25 0
DWIDTH 16 0
BBX 14 15 0 0
BITMAP
FFF8
F030
0060
0060
00C0
0180
0300
0300
0600
0C00
1C00
1800
3000
6004
FFF8
ENDCHAR

STARTCHAR char91
ENCODING 91
SWIDTH 34 0
DWIDTH 8 0
BBX 5 15 2 0
BITMAP
78
48
40
40
40
40
40
40
40
40
40
40
40
48
78
ENDCHAR

STARTCHAR char92
ENCODING 92
SWIDTH 25 0
DWIDTH 6 0
BBX 6 15 0 0
BITMAP
80
C0
40
40
60
20
20
30
10
10
18
18
08
0C
0C
ENDCHAR

STARTCHAR char93
ENCODING 93
SWIDTH 34 0
DWIDTH 8 0
BBX 5 15 1 0
BITMAP
F0
90
10
10
10
10
10
10
10
10
10
10
10
90
F0
ENDCHAR

STARTCHAR char94
ENCODING 94
SWIDTH 0 0
DWIDTH 0 0
BBX 8 4 -4 15
BITMAP
18
2C
46
C7
ENDCHAR

STARTCHAR char95
ENCODING 95
SWIDTH 8 0
DWIDTH 12 0
BBX 12 1 0 -3
BITMAP
FFF0
ENDCHAR

STARTCHAR char96
ENCODING 96
SWIDTH 0 0
DWIDTH 0 0
BBX 4 3 -3 13
BITMAP
C0
60
30
ENDCHAR

STARTCHAR char97
ENCODING 97
SWIDTH 20 0
DWIDTH 15 0
BBX 14 12 0 0
BITMAP
0700
0500
0500
0880
0880
1840
1040
3FE0
2020
6030
4010
E01C
ENDCHAR

STARTCHAR char98
ENCODING 98
SWIDTH 20 0
DWIDTH 15 0
BBX 12 12 1 0
BITMAP
7FC0
4060
4030
4030
4060
7FC0
4060
4010
4010
4010
4060
7FC0
ENDCHAR

STARTCHAR char99
ENCODING 99
SWIDTH 25 0
DWIDTH 16 0
BBX 13 12 1 0
BITMAP
1FE0
6030
4010
8000
8000
8000
8000
8000
C010
4010
3070
1FC0
ENDCHAR

STARTCHAR char100
ENCODING 100
SWIDTH 25 0
DWIDTH 16 0
BBX 13 12 1 0
BITMAP
7FC0
4060
4010
4018
4008
4008
4008
4008
4010
4030
4060
7F80
ENDCHAR

STARTCHAR char101
ENCODING 101
SWIDTH 16 0
DWIDTH 14 0
BBX 12 13 1 0
BITMAP
0020
7FE0
4000
4000
4000
4000
7F00
4080
4000
4000
4000
4010
7FE0
ENDCHAR

STARTCHAR char102
ENCODING 102
SWIDTH 16 0
DWIDTH 14 0
BBX 11 13 1 0
BITMAP
0020
7FE0
4000
4000
4000
4000
7F00
4080
4000
4000
4000
4000
C000
ENDCHAR

STARTCHAR char103
ENCODING 103
SWIDTH 25 0
DWIDTH 16 0
BBX 13 12 1 0
BITMAP
1FC0
7030
4010
C000
8000
8000
81F0
8110
C010
4010
3070
1FC0
ENDCHAR

STARTCHAR char104
ENCODING 104
SWIDTH 25 0
DWIDTH 16 0
BBX 13 12 1 0
BITMAP
4010
4010
4010
4010
4010
7FF0
4010
4010
4010
4010
4010
C038
ENDCHAR

STARTCHAR char105
ENCODING 105
SWIDTH 21 0
DWIDTH 5 0
BBX 3 12 1 0
BITMAP
E0
40
40
40
40
40
40
40
40
40
40
C0
ENDCHAR

STARTCHAR char106
ENCODING 106
SWIDTH 8 0
DWIDTH 12 0
BBX 10 12 0 0
BITMAP
01C0
0080
0080
0080
0080
0080
0080
0080
0080
4080
4100
3E00
ENDCHAR

STARTCHAR char107
ENCODING 107
SWIDTH 20 0
DWIDTH 15 0
BBX 12 12 1 0
BITMAP
E070
4080
4300
4600
4C00
5600
6200
4100
4180
40C0
4060
E070
ENDCHAR

STARTCHAR char108
ENCODING 108
SWIDTH 16 0
DWIDTH 14 0
BBX 12 12 1 0
BITMAP
C000
4000
4000
4000
4000
4000
4000
4000
4000
4000
4010
7FE0
ENDCHAR

STARTCHAR char109
ENCODING 109
SWIDTH 33 0
DWIDTH 18 0
BBX 14 12 1 0
BITMAP
E01C
6018
5018
5028
5848
4848
4C88
4488
4708
4308
4308
E10C
ENDCHAR

STARTCHAR char110
ENCODING 110
SWIDTH 29 0
DWIDTH 17 0
BBX 13 12 1 0
BITMAP
F018
7010
5810
4C10
4410
4210
4310
4190
40D0
4070
4030
E038
ENDCHAR

STARTCHAR char111
ENCODING 111
SWIDTH 29 0
DWIDTH 17 0
BBX 14 12 1 0
BITMAP
1FE0
6030
4018
800C
8004
8004
8004
8004
C008
4018
3070
1FC0
ENDCHAR

STARTCHAR char112
ENCODING 112
SWIDTH 16 0
DWIDTH 14 0
BBX 11 12 1 0
BITMAP
7F80
4040
4020
4020
4060
7FC0
4000
4000
4000
4000
4000
4000
ENDCHAR

STARTCHAR char113
ENCODING 113
SWIDTH 25 0
DWIDTH 16 0
BBX 12 13 1 -1
BITMAP
1FC0
6060
4030
8010
8010
8010
8010
8010
C030
4620
71C0
1FC0
0020
ENDCHAR

STARTCHAR char114
ENCODING 114
SWIDTH 20 0
DWIDTH 15 0
BBX 12 12 1 0
BITMAP
7FC0
4060
4020
4020
4040
7FC0
4100
4080
4080
4040
4040
4020
ENDCHAR

STARTCHAR char115
ENCODING 115
SWIDTH 20 0
DWIDTH 15 0
BBX 12 12 0 0
BITMAP
0FC0
3020
4020
4000
6000
3FE0
0030
0010
0010
4010
F060
0FC0
ENDCHAR

STARTCHAR char116
ENCODING 116
SWIDTH 16 0
DWIDTH 14 0
BBX 12 12 0 0
BITMAP
FFF0
0400
0400
0400
0400
0400
0400
0400
0400
0400
0400
0600
ENDCHAR

STARTCHAR char117
ENCODING 117
SWIDTH 25 0
DWIDTH 16 0
BBX 12 12 1 0
BITMAP
E030
4020
4020
4020
4020
4020
4020
4020
4020
4020
6060
1F80
ENDCHAR

STARTCHAR char118
ENCODING 118
SWIDTH 16 0
DWIDTH 14 0
BBX 13 12 0 0
BITMAP
E038
4020
6020
2060
3040
10C0
1880
0880
0900
0D00
0600
0600
ENDCHAR

STARTCHAR char119
ENCODING 119
SWIDTH 3 0
DWIDTH 21 0
BBX 20 12 0 0
BITMAP
E0E070
40E040
40A0C0
61A080
213080
211100
331100
121900
120A00
0C0A00
0C0600
0E0600
ENDCHAR

STARTCHAR char120
ENCODING 120
SWIDTH 16 0
DWIDTH 14 0
BBX 12 12 0 0
BITMAP
7060
70C0
38C0
1980
0F00
0600
0F00
1980
1180
20C0
6060
C030
ENDCHAR

STARTCHAR char121
ENCODING 121
SWIDTH 12 0
DWIDTH 13 0
BBX 12 12 0 0
BITMAP
E070
6060
30C0
1180
0B00
0E00
0400
0400
0400
0400
0400
0700
ENDCHAR

STARTCHAR char122
ENCODING 122
SWIDTH 12 0
DWIDTH 13 0
BBX 11 13 1 0
BITMAP
8000
FFC0
0080
0180
0300
0600
0400
0800
1800
3000
6000
4020
FFC0
ENDCHAR

STARTCHAR char123
ENCODING 123
SWIDTH 34 0
DWIDTH 8 0
BBX 5 19 1 -4
BITMAP
18
30
20
20
20
20
20
60
40
80
60
60
20
20
20
20
20
30
18
ENDCHAR

STARTCHAR char124
ENCODING 124
SWIDTH 25 0
DWIDTH 6 0
BBX 1 15 2 0
BITMAP
80
80
80
80
80
80
80
80
80
80
80
80
80
80
80
ENDCHAR

STARTCHAR char125
ENCODING 125
SWIDTH 34 0
DWIDTH 8 0
BBX 5 19 1 -4
BITMAP
C0
20
20
20
20
20
20
30
10
08
10
30
20
20
20
20
20
60
C0
ENDCHAR

STARTCHAR char126
ENCODING 126
SWIDTH 0 0
DWIDTH 0 0
BBX 8 3 -4 16
BITMAP
01
71
8E
ENDCHAR

STARTCHAR char128
ENCODING 128
SWIDTH 33 0
DWIDTH 18 0
BBX 19 15 -1 0
BITMAP
00FE00
038780
0700C0
0C0040
080000
7FFE00
100000
100000
FFFE00
180000
180000
0C0040
0600E0
038380
00FE00
ENDCHAR

STARTCHAR char130
ENCODING 130
SWIDTH 12 0
DWIDTH 3 0
BBX 1 4 1 -2
BITMAP
80
80
80
80
ENDCHAR

STARTCHAR char131
ENCODING 131
SWIDTH 0 0
DWIDTH 0 0
BBX 8 4 -4 15
BITMAP
18
2C
46
C7
ENDCHAR

STARTCHAR char132
ENCODING 132
SWIDTH 30 0
DWIDTH 7 0
BBX 5 4 1 -2
BITMAP
90
90
48
48
ENDCHAR

STARTCHAR char133
ENCODING 133
SWIDTH 7 0
DWIDTH 22 0
BBX 14 2 3 0
BITMAP
8204
8204
ENDCHAR

STARTCHAR char134
ENCODING 134
SWIDTH 12 0
DWIDTH 13 0
BBX 12 19 0 -4
BITMAP
0600
0400
0400
0400
8410
FFE0
0410
0400
0400
0400
0400
0400
0400
0400
0400
0400
0400
0400
0600
ENDCHAR

STARTCHAR char136
ENCODING 136
SWIDTH 0 0
DWIDTH 0 0
BBX 6 3 -3 13
BITMAP
10
78
8C
ENDCHAR

STARTCHAR char138
ENCODING 138
SWIDTH 3 0
DWIDTH 21 0
BBX 0 0 0 0
BITMAP
ENDCHAR

STARTCHAR char139
ENCODING 139
SWIDTH 30 0
DWIDTH 7 0
BBX 3 7 2 2
BITMAP
20
60
C0
80
E0
60
20
ENDCHAR

STARTCHAR char140
ENCODING 140
SWIDTH 20 0
DWIDTH 25 0
BBX 21 15 1 0
BITMAP
07FFF0
1C3FF0
302000
602000
C02000
802000
802040
803F80
802040
802000
C02000
402000
602000
382008
0FFFF8
ENDCHAR

STARTCHAR char141
ENCODING 141
SWIDTH 3 0
DWIDTH 21 0
BBX 0 0 0 0
BITMAP
ENDCHAR

STARTCHAR char145
ENCODING 145
SWIDTH 17 0
DWIDTH 4 0
BBX 1 4 1 11
BITMAP
80
80
80
80
ENDCHAR

STARTCHAR char146
ENCODING 146
SWIDTH 17 0
DWIDTH 4 0
BBX 1 5 1 10
BITMAP
80
80
80
80
80
ENDCHAR

STARTCHAR char147
ENCODING 147
SWIDTH 30 0
DWIDTH 7 0
BBX 5 4 1 11
BITMAP
90
90
90
90
ENDCHAR

STARTCHAR char148
ENCODING 148
SWIDTH 30 0
DWIDTH 7 0
BBX 4 4 1 11
BITMAP
90
90
90
90
ENDCHAR

STARTCHAR char149
ENCODING 149
SWIDTH 30 0
DWIDTH 7 0
BBX 5 5 1 5
BITMAP
70
F8
F8
F8
70
ENDCHAR

STARTCHAR char150
ENCODING 150
SWIDTH 33 0
DWIDTH 18 0
BBX 15 1 0 6
BITMAP
FFFE
ENDCHAR

STARTCHAR char151
ENCODING 151
SWIDTH 20 0
DWIDTH 15 0
BBX 13 1 0 6
BITMAP
FFF8
ENDCHAR

STARTCHAR char152
ENCODING 152
SWIDTH 0 0
DWIDTH 0 0
BBX 8 3 -4 13
BITMAP
01
73
4C
ENDCHAR

STARTCHAR char153
ENCODING 153
SWIDTH 42 0
DWIDTH 20 0
BBX 17 8 0 6
BITMAP
FFC180
92C300
92E500
10A500
10B500
109500
109900
39CB80
ENDCHAR

STARTCHAR char155
ENCODING 155
SWIDTH 30 0
DWIDTH 7 0
BBX 3 7 2 2
BITMAP
80
C0
60
20
E0
80
80
ENDCHAR

STARTCHAR char156
ENCODING 156
SWIDTH 42 0
DWIDTH 20 0
BBX 18 13 1 0
BITMAP
000080
1FFF80
308000
408000
808000
808000
80FC00
808200
808000
C08000
608000
308040
0FFF80
ENDCHAR

STARTCHAR char157
ENCODING 157
SWIDTH 3 0
DWIDTH 21 0
BBX 0 0 0 0
BITMAP
ENDCHAR

STARTCHAR char159
ENCODING 159
SWIDTH 25 0
DWIDTH 16 0
BBX 14 18 0 0
BITMAP
1040
1040
0000
C01C
6018
2010
3020
1840
0CC0
0580
0700
0200
0200
0200
0200
0200
0200
0200
ENDCHAR

STARTCHAR char160
ENCODING 160
SWIDTH 43 0
DWIDTH 10 0
BBX 0 0 0 0
BITMAP
ENDCHAR

STARTCHAR char161
ENCODING 161
SWIDTH 21 0
DWIDTH 5 0
BBX 3 15 0 0
BITMAP
40
00
00
00
40
40
40
40
40
40
40
40
40
40
E0
ENDCHAR

STARTCHAR char162
ENCODING 162
SWIDTH 25 0
DWIDTH 16 0
BBX 13 16 1 -2
BITMAP
0200
0200
1FE0
6230
C210
8200
8200
8200
8200
8200
C210
6210
3270
1FC0
0200
0200
ENDCHAR

STARTCHAR char163
ENCODING 163
SWIDTH 29 0
DWIDTH 17 0
BBX 15 15 1 0
BITMAP
07E0
1C38
300C
2004
2000
2000
2000
FF80
A080
2000
2000
2000
2000
A004
FFFC
ENDCHAR

STARTCHAR char164
ENCODING 164
SWIDTH 0 0
DWIDTH 0 0
BBX 5 4 -1 15
BITMAP
30
60
40
C0
ENDCHAR

STARTCHAR char165
ENCODING 165
SWIDTH 0 0
DWIDTH 0 0
BBX 8 4 -4 15
BITMAP
62
34
18
18
ENDCHAR

STARTCHAR char166
ENCODING 166
SWIDTH 3 0
DWIDTH 21 0
BBX 0 0 0 0
BITMAP
ENDCHAR

STARTCHAR char167
ENCODING 167
SWIDTH 8 0
DWIDTH 12 0
BBX 10 19 0 -4
BITMAP
1E00
3300
2080
2080
3000
3800
3E00
6300
4180
40C0
6040
3040
1C80
0700
0300
0080
4080
7180
1E00
ENDCHAR

STARTCHAR char168
ENCODING 168
SWIDTH 0 0
DWIDTH 0 0
BBX 6 2 -3 14
BITMAP
04
84
ENDCHAR

STARTCHAR char169
ENCODING 169
SWIDTH 33 0
DWIDTH 18 0
BBX 14 14 1 0
BITMAP
0780
1860
2010
47C8
4CC8
8844
9004
9004
9004
9804
4C88
4710
3030
0FC0
ENDCHAR

STARTCHAR char170
ENCODING 170
SWIDTH 0 0
DWIDTH 0 0
BBX 6 2 -3 16
BITMAP
84
84
ENDCHAR

STARTCHAR char171
ENCODING 171
SWIDTH 38 0
DWIDTH 9 0
BBX 6 8 2 2
BITMAP
68
58
D0
B0
B0
D0
58
68
ENDCHAR

STARTCHAR char172
ENCODING 172
SWIDTH 25 0
DWIDTH 16 0
BBX 14 6 0 0
BITMAP
FFFC
0004
0004
0004
0004
0004
ENDCHAR

STARTCHAR char174
ENCODING 174
SWIDTH 33 0
DWIDTH 18 0
BBX 14 13 1 0
BITMAP
0FC0
3030
4F98
44C8
8444
84C4
8704
8584
84C4
4E68
4018
3030
0FC0
ENDCHAR

STARTCHAR char176
ENCODING 176
SWIDTH 43 0
DWIDTH 10 0
BBX 7 6 -1 8
BITMAP
38
44
82
82
C4
78
ENDCHAR

STARTCHAR char177
ENCODING 177
SWIDTH 8 0
DWIDTH 12 0
BBX 11 13 0 0
BITMAP
0400
0400
0400
0400
0400
FFE0
0400
0400
0400
0400
0400
0000
FFE0
ENDCHAR

STARTCHAR char179
ENCODING 179
SWIDTH 3 0
DWIDTH 21 0
BBX 0 0 0 0
BITMAP
ENDCHAR

STARTCHAR char180
ENCODING 180
SWIDTH 0 0
DWIDTH 0 0
BBX 4 3 -1 13
BITMAP
30
60
C0
ENDCHAR

STARTCHAR char182
ENCODING 182
SWIDTH 20 0
DWIDTH 15 0
BBX 9 18 2 -3
BITMAP
3F80
7100
F100
F100
F100
F100
F100
7100
1100
1100
1100
1100
1100
1100
1100
1100
1100
1100
ENDCHAR

STARTCHAR char183
ENCODING 183
SWIDTH 17 0
DWIDTH 4 0
BBX 1 2 1 5
BITMAP
80
80
ENDCHAR

STARTCHAR char184
ENCODING 184
SWIDTH 0 0
DWIDTH 0 0
BBX 4 3 -2 -3
BITMAP
60
10
F0
ENDCHAR

STARTCHAR char185
ENCODING 185
SWIDTH 3 0
DWIDTH 21 0
BBX 0 0 0 0
BITMAP
ENDCHAR

STARTCHAR char186
ENCODING 186
SWIDTH 0 0
DWIDTH 0 0
BBX 8 3 -4 16
BITMAP
01
71
8E
ENDCHAR

STARTCHAR char187
ENCODING 187
SWIDTH 38 0
DWIDTH 9 0
BBX 6 8 1 2
BITMAP
D0
58
68
2C
2C
68
58
D0
ENDCHAR

STARTCHAR char189
ENCODING 189
SWIDTH 3 0
DWIDTH 21 0
BBX 0 0 0 0
BITMAP
ENDCHAR

STARTCHAR char191
ENCODING 191
SWIDTH 3 0
DWIDTH 11 0
BBX 8 15 1 0
BITMAP
10
10
00
00
38
10
10
20
40
40
80
82
83
46
3C
ENDCHAR

STARTCHAR char192
ENCODING 192
SWIDTH 33 0
DWIDTH 18 0
BBX 16 19 0 0
BITMAP
0C00
0600
0300
0180
03C0
0180
03C0
0240
0660
0460
0C30
0C30
1810
1818
3FF8
300C
600C
6006
E007
ENDCHAR

STARTCHAR char193
ENCODING 193
SWIDTH 33 0
DWIDTH 18 0
BBX 16 19 0 0
BITMAP
0060
00C0
0180
0300
03C0
0180
03C0
0240
0660
0460
0C30
0C30
1810
1818
3FF8
300C
600C
6006
E007
ENDCHAR

STARTCHAR char194
ENCODING 194
SWIDTH 33 0
DWIDTH 18 0
BBX 16 19 0 0
BITMAP
0180
02C0
0460
0C70
03C0
0180
03C0
0240
0660
0460
0C30
0C30
1810
1818
3FF8
300C
600C
6006
E007
ENDCHAR

STARTCHAR char195
ENCODING 195
SWIDTH 33 0
DWIDTH 18 0
BBX 16 19 0 0
BITMAP
0010
0630
19E0
0000
03C0
0180
03C0
0240
0660
0460
0C30
0C30
1810
1818
3FF8
300C
600C
6006
E007
ENDCHAR

STARTCHAR char196
ENCODING 196
SWIDTH 33 0
DWIDTH 18 0
BBX 16 16 0 0
BITMAP
1010
1190
0380
0380
0640
0440
0440
0820
0820
1010
1010
3FF8
2008
6004
4006
E007
ENDCHAR

STARTCHAR char197
ENCODING 197
SWIDTH 33 0
DWIDTH 18 0
BBX 16 19 0 0
BITMAP
0380
0640
0440
0380
0380
0180
03C0
0240
0660
0460
0C30
0C30
1810
1818
3FF8
300C
600C
6006
E007
ENDCHAR

STARTCHAR char198
ENCODING 198
SWIDTH 16 0
DWIDTH 24 0
BBX 21 15 0 0
BITMAP
00FFF8
01A008
012000
032000
032000
062000
062040
0C3F80
0C2040
182000
1FE000
302000
202000
602008
403FF8
ENDCHAR

STARTCHAR char199
ENCODING 199
SWIDTH 33 0
DWIDTH 18 0
BBX 16 18 1 -3
BITMAP
07F0
1C3C
300E
6004
C000
8000
8000
8000
8000
8000
C000
6002
700E
1C1C
0FF0
0300
0080
0780
ENDCHAR

STARTCHAR char200
ENCODING 200
SWIDTH 25 0
DWIDTH 16 0
BBX 14 19 1 0
BITMAP
1800
0800
0400
0600
7FF8
4008
4000
4000
4000
4000
4040
7FC0
4020
4000
4000
4000
4000
4004
7FF8
ENDCHAR

STARTCHAR char201
ENCODING 201
SWIDTH 25 0
DWIDTH 16 0
BBX 14 19 1 0
BITMAP
0180
0300
0200
0600
7FF8
4008
4000
4000
4000
4000
4040
7FC0
4020
4000
4000
4000
4000
4004
7FF8
ENDCHAR

STARTCHAR char202
ENCODING 202
SWIDTH 25 0
DWIDTH 16 0
BBX 14 19 1 0
BITMAP
0600
0B00
1180
31C0
7FF8
4008
4000
4000
4000
4000
4040
7FC0
4020
4000
4000
4000
4000
4004
7FF8
ENDCHAR

STARTCHAR char203
ENCODING 203
SWIDTH 25 0
DWIDTH 16 0
BBX 14 18 1 0
BITMAP
3080
3080
0000
7FF8
4008
4000
4000
4000
4000
4040
7F80
4040
4000
4000
4000
4000
4004
7FF8
ENDCHAR

STARTCHAR char204
ENCODING 204
SWIDTH 25 0
DWIDTH 6 0
BBX 7 19 -2 0
BITMAP
60
30
10
0C
1C
08
08
08
08
08
08
08
08
08
08
08
08
08
0E
ENDCHAR

STARTCHAR char205
ENCODING 205
SWIDTH 25 0
DWIDTH 6 0
BBX 6 19 1 0
BITMAP
18
10
20
60
60
20
20
20
20
20
20
20
20
20
20
20
20
20
70
ENDCHAR

STARTCHAR char206
ENCODING 206
SWIDTH 25 0
DWIDTH 6 0
BBX 9 19 -2 0
BITMAP
1800
2C00
2600
E380
1C00
0800
0800
0800
0800
0800
0800
0800
0800
0800
0800
0800
0800
0800
1E00
ENDCHAR

STARTCHAR char207
ENCODING 207
SWIDTH 25 0
DWIDTH 6 0
BBX 7 18 -1 0
BITMAP
82
82
00
38
10
10
10
10
10
10
10
10
10
10
10
10
10
3C
ENDCHAR

STARTCHAR char209
ENCODING 209
SWIDTH 38 0
DWIDTH 19 0
BBX 15 19 1 0
BITMAP
0020
0E20
11E0
0000
F00E
7004
5804
5804
4C04
4604
4304
4184
40C4
4064
4064
4034
401C
400C
E00E
ENDCHAR

STARTCHAR char210
ENCODING 210
SWIDTH 3 0
DWIDTH 21 0
BBX 17 19 1 0
BITMAP
060000
020000
010000
018000
07F000
1C3C00
300E00
600300
C00100
800180
800080
800080
800080
800180
C00100
600300
700600
181C00
07F000
ENDCHAR

STARTCHAR char211
ENCODING 211
SWIDTH 3 0
DWIDTH 21 0
BBX 17 19 1 0
BITMAP
006000
00C000
008000
018000
07F000
1C3C00
300E00
600300
C00100
800180
800080
800080
800080
800180
C00100
600300
700600
181C00
07F000
ENDCHAR

STARTCHAR char212
ENCODING 212
SWIDTH 3 0
DWIDTH 21 0
BBX 16 19 1 0
BITMAP
0180
02C0
0460
0C70
07E0
1C38
300C
6006
C002
8001
8001
8001
8001
8001
C003
4002
7006
181C
07F0
ENDCHAR

STARTCHAR char213
ENCODING 213
SWIDTH 3 0
DWIDTH 21 0
BBX 17 19 1 0
BITMAP
001000
071000
08E000
000000
07F000
1C3C00
300E00
600300
C00100
800180
800080
800080
800080
800180
C00100
600300
700600
181C00
07F000
ENDCHAR

STARTCHAR char214
ENCODING 214
SWIDTH 3 0
DWIDTH 21 0
BBX 17 16 1 0
BITMAP
400300
47F300
1C3C00
300E00
600300
C00100
800180
800080
800080
800080
800180
C00100
600300
700600
181C00
07F000
ENDCHAR

STARTCHAR char216
ENCODING 216
SWIDTH 3 0
DWIDTH 21 0
BBX 17 15 0 0
BITMAP
03F100
0E1D00
180700
300700
601900
403080
406080
40C080
418080
430080
640180
280180
380300
7C0E00
C3F800
ENDCHAR

STARTCHAR char217
ENCODING 217
SWIDTH 33 0
DWIDTH 18 0
BBX 14 19 1 0
BITMAP
0C00
0400
0200
0300
E00C
4008
4008
4008
4008
4008
4008
4008
4008
4008
4008
4008
6018
3038
1FE0
ENDCHAR

STARTCHAR char218
ENCODING 218
SWIDTH 33 0
DWIDTH 18 0
BBX 14 19 1 0
BITMAP
00C0
0180
0100
0300
E00C
4008
4008
4008
4008
4008
4008
4008
4008
4008
4008
4008
6018
3038
1FE0
ENDCHAR

STARTCHAR char219
ENCODING 219
SWIDTH 33 0
DWIDTH 18 0
BBX 14 19 1 0
BITMAP
0300
0580
08C0
18E0
E00C
4008
4008
4008
4008
4008
4008
4008
4008
4008
4008
4008
6018
3038
1FE0
ENDCHAR

STARTCHAR char220
ENCODING 220
SWIDTH 33 0
DWIDTH 18 0
BBX 14 16 1 0
BITMAP
0440
4448
4008
4008
4008
4008
4008
4008
4008
4008
4008
4008
4008
6018
3038
1FE0
ENDCHAR

STARTCHAR char222
ENCODING 222
SWIDTH 3 0
DWIDTH 21 0
BBX 0 0 0 0
BITMAP
ENDCHAR

STARTCHAR char223
ENCODING 223
SWIDTH 28 0
DWIDTH 27 0
BBX 26 12 -1 0
BITMAP
0FC07F00
30208080
40210080
40010000
60018000
3FE0FF00
00F001C0
00100040
00100040
40110040
F063C180
0FC03E00
ENDCHAR

STARTCHAR char224
ENCODING 224
SWIDTH 20 0
DWIDTH 15 0
BBX 14 16 0 0
BITMAP
0800
0400
0200
0000
0700
0500
0580
0880
08C0
1840
1040
3FE0
2020
6030
4010
E01C
ENDCHAR

STARTCHAR char225
ENCODING 225
SWIDTH 20 0
DWIDTH 15 0
BBX 14 16 0 0
BITMAP
0180
0100
0200
0600
0700
0500
0580
0880
08C0
1840
1040
3FE0
2020
6030
4010
E01C
ENDCHAR

STARTCHAR char226
ENCODING 226
SWIDTH 20 0
DWIDTH 15 0
BBX 14 16 0 0
BITMAP
0200
0500
0980
0000
0700
0500
0580
0880
08C0
1840
1040
3FE0
2020
6030
4010
E01C
ENDCHAR

STARTCHAR char227
ENCODING 227
SWIDTH 20 0
DWIDTH 15 0
BBX 14 16 0 0
BITMAP
0040
0E40
1180
0000
0700
0500
0580
0880
08C0
1840
1040
3FE0
2020
6030
4010
E01C
ENDCHAR

STARTCHAR char228
ENCODING 228
SWIDTH 20 0
DWIDTH 15 0
BBX 14 15 0 0
BITMAP
0880
0000
0000
0700
0500
0580
0C80
08C0
1840
1840
3FE0
2020
6030
4010
E01C
ENDCHAR

STARTCHAR char229
ENCODING 229
SWIDTH 20 0
DWIDTH 15 0
BBX 13 16 0 0
BITMAP
0700
0880
0880
0700
0700
0500
0580
0880
08C0
1840
1040
3FE0
2020
6030
4010
C018
ENDCHAR

STARTCHAR char230
ENCODING 230
SWIDTH 38 0
DWIDTH 19 0
BBX 17 12 0 0
BITMAP
03FF80
028000
048000
0C8000
088000
18FC00
108200
3F8000
208000
608000
408080
C0FF80
ENDCHAR

STARTCHAR char231
ENCODING 231
SWIDTH 25 0
DWIDTH 16 0
BBX 13 15 1 -3
BITMAP
1FE0
6030
4010
8000
8000
8000
8000
8000
C010
4010
3870
07C0
0700
0100
0F00
ENDCHAR

STARTCHAR char232
ENCODING 232
SWIDTH 16 0
DWIDTH 14 0
BBX 12 16 1 0
BITMAP
3000
1800
0800
0020
7FE0
4000
4000
4000
4000
7F00
4080
4000
4000
4000
4010
7FE0
ENDCHAR

STARTCHAR char233
ENCODING 233
SWIDTH 16 0
DWIDTH 14 0
BBX 12 16 1 0
BITMAP
0300
0600
0C00
0020
7FE0
4000
4000
4000
4000
7F00
4080
4000
4000
4000
4010
7FE0
ENDCHAR

STARTCHAR char234
ENCODING 234
SWIDTH 16 0
DWIDTH 14 0
BBX 12 16 1 0
BITMAP
0C00
1600
2300
0020
7FE0
4000
4000
4000
4000
7F00
4080
4000
4000
4000
4010
7FE0
ENDCHAR

STARTCHAR char235
ENCODING 235
SWIDTH 16 0
DWIDTH 14 0
BBX 12 15 1 0
BITMAP
2100
0000
0020
7FE0
4000
4000
4000
4000
7F00
4080
4000
4000
4000
4010
7FE0
ENDCHAR

STARTCHAR char236
ENCODING 236
SWIDTH 21 0
DWIDTH 5 0
BBX 5 16 -1 0
BITMAP
C0
20
30
00
10
10
10
10
10
10
10
10
10
10
10
30
ENDCHAR

STARTCHAR char237
ENCODING 237
SWIDTH 21 0
DWIDTH 5 0
BBX 5 16 1 0
BITMAP
10
20
40
00
40
40
40
40
40
40
40
40
40
40
40
C0
ENDCHAR

STARTCHAR char238
ENCODING 238
SWIDTH 21 0
DWIDTH 5 0
BBX 7 16 -1 0
BITMAP
30
78
4C
00
20
20
20
20
20
20
20
20
20
20
20
30
ENDCHAR

STARTCHAR char239
ENCODING 239
SWIDTH 21 0
DWIDTH 5 0
BBX 6 15 -1 0
BITMAP
84
00
00
10
10
10
10
10
10
10
10
10
10
10
30
ENDCHAR

STARTCHAR char241
ENCODING 241
SWIDTH 29 0
DWIDTH 17 0
BBX 13 16 1 0
BITMAP
0040
1CC0
1300
0000
E010
7010
5810
4C10
4410
4210
4310
4190
40D0
4070
4030
E038
ENDCHAR

STARTCHAR char242
ENCODING 242
SWIDTH 29 0
DWIDTH 17 0
BBX 14 16 1 0
BITMAP
0800
0400
0200
0000
1FE0
6030
4018
800C
8004
8004
8004
8004
C008
4018
3070
1FC0
ENDCHAR

STARTCHAR char243
ENCODING 243
SWIDTH 29 0
DWIDTH 17 0
BBX 14 16 1 0
BITMAP
0180
0100
0200
0000
1FE0
6030
4018
800C
8004
8004
8004
8004
C008
4018
3070
1FC0
ENDCHAR

STARTCHAR char244
ENCODING 244
SWIDTH 29 0
DWIDTH 17 0
BBX 14 16 1 0
BITMAP
0200
0500
0880
0000
1FE0
6030
4018
800C
8004
8004
8004
8004
C008
4018
3070
1FC0
ENDCHAR

STARTCHAR char245
ENCODING 245
SWIDTH 29 0
DWIDTH 17 0
BBX 14 16 1 0
BITMAP
0040
0E40
1180
0000
1FE0
6030
4018
800C
8004
8004
8004
8004
C008
4018
3070
1FC0
ENDCHAR

STARTCHAR char246
ENCODING 246
SWIDTH 29 0
DWIDTH 17 0
BBX 14 15 1 0
BITMAP
0880
0000
0000
1FE0
6030
4018
800C
8004
8004
8004
8004
C008
4018
3070
1FC0
ENDCHAR

STARTCHAR char247
ENCODING 247
SWIDTH 8 0
DWIDTH 12 0
BBX 11 7 0 2
BITMAP
0400
0400
0000
FFE0
0000
0400
0400
ENDCHAR

STARTCHAR char248
ENCODING 248
SWIDTH 29 0
DWIDTH 17 0
BBX 14 13 1 0
BITMAP
0008
1FE8
7030
4078
80C8
818C
8204
8404
8804
5008
6018
7070
9FC0
ENDCHAR

STARTCHAR char249
ENCODING 249
SWIDTH 25 0
DWIDTH 16 0
BBX 12 16 1 0
BITMAP
1800
0800
0400
0000
4020
4020
4020
4020
4020
4020
4020
4020
4020
4020
6060
1F80
ENDCHAR

STARTCHAR char250
ENCODING 250
SWIDTH 25 0
DWIDTH 16 0
BBX 12 16 1 0
BITMAP
0100
0200
0400
0000
4020
4020
4020
4020
4020
4020
4020
4020
4020
4020
6060
1F80
ENDCHAR

STARTCHAR char251
ENCODING 251
SWIDTH 25 0
DWIDTH 16 0
BBX 12 16 1 0
BITMAP
0400
0E00
1100
0000
4020
4020
4020
4020
4020
4020
4020
4020
4020
4020
6060
1F80
ENDCHAR

STARTCHAR char252
ENCODING 252
SWIDTH 25 0
DWIDTH 16 0
BBX 12 15 1 0
BITMAP
1080
0000
0000
4020
4020
4020
4020
4020
4020
4020
4020
4020
4020
6060
1F80
ENDCHAR

STARTCHAR char255
ENCODING 255
SWIDTH 12 0
DWIDTH 13 0
BBX 12 15 0 0
BITMAP
1180
0000
0000
4020
6040
2180
1180
0B00
0E00
0400
0400
0400
0400
0400
0600
ENDCHAR
ENDFONT
